Coordinates
version=1
nRows=22
nColumns=24
inDegrees=yes

Units are S.I. units (second, meters, Newtons, ...)
Angles are in degrees.

endheader
time	pelvis_tilt	pelvis_list	pelvis_rotation	pelvis_tx	pelvis_ty	pelvis_tz	hip_flexion_r	hip_adduction_r	hip_rotation_r	knee_angle_r	ankle_angle_r	subtalar_angle_r	mtp_angle_r	hip_flexion_l	hip_adduction_l	hip_rotation_l	knee_angle_l	ankle_angle_l	subtalar_angle_l	mtp_angle_l	lumbar_extension	lumbar_bending	lumbar_rotation
      0.80500000	     24.43282411	     -1.40687164	     -3.00795773	     -0.55903088	      0.95347088	      0.00472121	    -45.65972452	      2.16487847	     -9.53088110	     -1.60621740	     13.49038224	     14.31402700	     16.21991730	     -7.98055260	      2.95406767	    -23.30629559	      5.97445808	     -1.23295108	     17.79103662	     34.76987701	    -31.66239872	     -0.70345416	      4.14412389
      0.81000000	     24.43356486	     -1.34859781	     -3.19802883	     -0.55256986	      0.95277684	      0.00472646	    -45.83044872	      1.89828138	     -9.42757620	     -2.06186115	     13.50829324	     14.40775761	     16.50613433	     -8.02965760	      3.06053531	    -23.31050834	      5.65151726	     -1.26026494	     17.36343040	     34.77374503	    -31.59094544	     -0.87936905	      4.22075649
      0.81500000	     24.42279865	     -1.33637542	     -3.36269808	     -0.54621679	      0.95210984	      0.00466043	    -46.00401182	      1.68924675	     -9.08800303	     -2.44534489	     13.39398040	     14.10232835	     17.06494718	     -8.02635417	      3.08831388	    -23.25736718	      5.12830899	     -1.44583570	     16.87487978	     34.85688111	    -31.51650728	     -1.00013845	      4.34560850
      0.82000000	     24.41003101	     -1.19554435	     -3.45940370	     -0.53963037	      0.95146007	      0.00458961	    -46.18372171	      1.43355301	     -9.11164297	     -2.85135451	     13.19389823	     14.07622445	     18.09806610	     -8.01734016	      3.23643379	    -23.09544693	      4.50627670	     -2.42997656	     16.08221156	     34.70541134	    -31.41549015	     -1.22698500	      4.24901073
      0.82500000	     24.47139557	     -1.06383331	     -3.64734910	     -0.53312031	      0.95101791	      0.00450865	    -46.38188336	      1.09414944	     -9.05099467	     -3.36338303	     13.01860189	     14.15882019	     18.64190766	     -8.13601806	      3.42653273	    -23.08623873	      3.93971383	     -4.21720756	     14.52205001	     34.63789577	    -31.41470376	     -1.48058044	      4.29470512
      0.83000000	     24.43189874	     -0.98634397	     -3.82932573	     -0.52678149	      0.95056294	      0.00440451	    -46.41238961	      0.79867532	     -8.88408366	     -3.94200973	     12.72023170	     14.17643892	     20.67487040	     -8.09890642	      3.55476415	    -23.06600324	      3.33041864	     -5.90932646	     12.47729857	     37.17126057	    -31.32838550	     -1.65862089	      4.41535592
      0.83500000	     24.49837964	     -0.75184461	     -4.00876831	     -0.52034154	      0.95033809	      0.00422825	    -46.57954602	      0.37756005	     -8.79590644	     -4.47518511	     12.51588299	     14.09255033	     20.89025082	     -8.22325931	      3.86416139	    -23.02365100	      2.84039621	     -6.94519135	     11.26352943	     37.18169989	    -31.31362183	     -2.01305491	      4.39663608
      0.84000000	     24.46329884	     -0.50206616	     -4.19501118	     -0.51394454	      0.95016526	      0.00398859	    -46.56654463	     -0.06983606	     -8.70459104	     -5.11744604	     12.14037328	     14.04108143	     22.69087444	     -8.21591536	      4.16360906	    -22.88477320	      2.32859666	     -7.88849100	     10.24843259	     38.77526109	    -31.21355700	     -2.37191364	      4.35565939
      0.84500000	     24.43296216	     -0.21381099	     -4.38147493	     -0.50758929	      0.95010252	      0.00387126	    -46.55642693	     -0.53521700	     -8.57308044	     -5.75397937	     11.90671519	     13.88369111	     22.76093838	     -8.13922226	      4.45845536	    -22.78834485	      1.63964729	     -8.54401809	      9.96842780	     38.77517068	    -31.11923073	     -2.78247050	      4.28260036
      0.85000000	     24.37857219	      0.08018595	     -4.50006487	     -0.50131284	      0.95011691	      0.00355657	    -46.45641551	     -0.96989701	     -8.52179297	     -6.48119057	     11.36229342	     13.68105315	     25.26304665	     -8.00947132	      4.74474487	    -22.49816280	      0.89260896	     -9.48434284	      8.97404271	     40.98608820	    -31.02129444	     -3.14775029	      4.22365333
      0.85500000	     24.31419905	      0.40125963	     -4.63826766	     -0.49512962	      0.95022204	      0.00332568	    -46.29448981	     -1.43165140	     -8.39259565	     -7.31795345	     11.10912909	     13.39395496	     25.47895732	     -7.79013929	      5.01716018	    -22.21816971	     -0.12461354	     -9.62170737	      8.17549266	     41.00077620	    -30.91712721	     -3.56638399	      4.17806212
      0.86000000	     24.24301056	      0.78352046	     -4.66653763	     -0.48887597	      0.95036502	      0.00299266	    -46.15652998	     -1.85371022	     -8.40404794	     -8.06450536	     10.35296560	     13.11578223	     27.85497375	     -7.54660640	      5.33309656	    -21.64350950	     -1.17045131	     -9.64673570	      6.81275270	     41.63066269	    -30.81510889	     -4.00620162	      3.90524520
      0.86500000	     24.05111144	      1.09027042	     -4.69552150	     -0.48246436	      0.95045439	      0.00275400	    -45.82018817	     -2.20935857	     -8.36886843	     -8.98818345	      9.89104480	     12.89844839	     28.21842376	     -7.14279600	      5.52728908	    -21.25434768	     -2.32829523	     -9.04664089	      5.96054782	     41.62243478	    -30.56269091	     -4.37109052	      3.75198273
      0.87000000	     23.97823149	      1.40545081	     -4.70660025	     -0.47611580	      0.95073073	      0.00248777	    -45.63814352	     -2.54585514	     -8.21770202	     -9.79705799	      9.09256090	     12.26754744	     31.30179812	     -6.88899160	      5.75709117	    -20.80657941	     -3.43610829	     -8.37379917	      4.74982499	     40.93839978	    -30.44078645	     -4.74808260	      3.60436143
      0.87500000	     23.81248709	      1.70632659	     -4.64820810	     -0.46970379	      0.95095764	      0.00212676	    -45.31397770	     -2.81284368	     -8.05328268	    -10.71454892	      8.58332477	     11.61153040	     31.70626998	     -6.51712130	      5.95035249	    -20.29018922	     -4.61115788	     -7.81566189	      3.61484690	     40.32917366	    -30.23128258	     -5.05373712	      3.39760052
      0.88000000	     23.68265454	      2.01745588	     -4.57654827	     -0.46330626	      0.95121227	      0.00180255	    -44.94952350	     -3.08810427	     -7.98140863	    -11.77799517	      7.98172278	     11.03738747	     33.31107335	     -6.19564680	      6.15293178	    -19.71908826	     -5.82232422	     -6.89617817	      3.43063618	     37.88358092	    -30.06215154	     -5.39005693	      3.18804028
      0.88500000	     23.53230209	      2.34495688	     -4.43516668	     -0.45683091	      0.95145796	      0.00122401	    -44.53695567	     -3.35063536	     -8.05188751	    -12.90136513	      7.15695070	     10.59668789	     34.84036350	     -5.89616469	      6.40799882	    -19.02125806	     -6.94813457	     -6.07036396	      3.26258112	     35.87038980	    -29.86559064	     -5.70113046	      2.95004021
      0.89000000	     23.36218370	      2.72374118	     -4.29013598	     -0.45032572	      0.95171088	      0.00060426	    -44.04103458	     -3.68538140	     -8.33287339	    -14.15382724	      6.19812530	     10.47421341	     36.73334634	     -5.58072567	      6.72208647	    -18.32793235	     -8.07665127	     -5.19696566	      3.23137045	     33.57484623	    -29.65584413	     -6.05467764	      2.69843907
      0.89500000	     23.27634552	      3.04945884	     -4.23399094	     -0.44374631	      0.95214730	      0.00004227	    -43.59023128	     -4.04959105	     -8.47389617	    -15.45026053	      5.15353750	     10.10498965	     38.68124017	     -5.46232229	      7.02888166	    -17.78264720	     -9.00929749	     -4.33533600	      3.02024901	     31.54523608	    -29.51113756	     -6.37820591	      2.52318385
      0.90000000	     23.19931989	      3.33125121	     -4.15904965	     -0.43729711	      0.95262046	     -0.00061800	    -43.07774509	     -4.37436281	     -8.57683602	    -16.83823093	      3.98209043	      9.64934437	     40.38578698	     -5.41758727	      7.30982549	    -17.25069034	     -9.79615270	     -3.54342365	      2.61457363	     29.97309538	    -29.40015895	     -6.63851331	      2.42656119
      0.90500000	     23.09889060	      3.60337660	     -4.12613509	     -0.43071342	      0.95317836	     -0.00117133	    -42.45627665	     -4.75376883	     -8.72404596	    -18.37464479	      2.78739960	      9.32089136	     42.18950564	     -5.43981041	      7.58715463	    -16.85095920	    -10.40670673	     -2.88289607	      2.54896492	     28.40192378	    -29.23752143	     -6.91543527	      2.36611101
      0.91000000	     23.07644566	      3.86274647	     -4.12843664	     -0.42401137	      0.95386212	     -0.00169343	    -41.93166254	     -5.15040007	     -8.81923253	    -19.84760615	      1.47483503	      8.94638728	     44.27941354	     -5.63398131	      7.87423327	    -16.59457983	    -10.86840590	     -2.20566319	      2.83481995	     27.06572527	    -29.14459275	     -7.21081422	      2.31455346
